<svg width="21" height="24" viewBox="0 0 21 24" fill="none" xmlns="http://www.w3.org/2000/svg">
<path d="M19.4994 6.54825C19.4921 6.45056 19.4104 6.375 19.3125 6.375H16.4375H15.9375V5.875V5.4375C15.9375 2.43919 13.4981 0 10.5 0C7.50185 0 5.06248 2.43919 5.06248 5.4375V5.875V6.375H4.56248H1.68748C1.5896 6.375 1.50785 6.45056 1.50054 6.54825H19.4994ZM19.4994 6.54825L20.8119 23.7984L19.4994 6.54825ZM15.4375 6.375V6.875H15.9375H19.0228L20.2878 23.5H0.712176L1.97712 6.875H5.06248H5.56248V6.375V5.4375C5.56248 2.71534 7.77798 0.5 10.5 0.5C13.222 0.5 15.4375 2.71534 15.4375 5.4375V6.375ZM19.0009 6.58618L19.0009 6.58698C19.0009 6.58651 19.0008 6.58604 19.0008 6.58558L19.0009 6.58618ZM14.4375 6.875H14.9375V6.375V5.4375C14.9375 2.99031 12.9474 1 10.5 1C8.05257 1 6.06248 2.99031 6.06248 5.4375V6.375V6.875H6.56248H14.4375Z" fill="white" stroke="white"/>
</svg>
