<svg width="25" height="24" viewBox="0 0 25 24" fill="none" xmlns="http://www.w3.org/2000/svg">
<path d="M6.56248 9.75C6.56248 10.4398 7.12298 11 7.81248 11C8.50197 11 9.06248 10.4398 9.06248 9.75H8.06248C8.06248 9.8874 7.94985 10 7.81248 10C7.6751 10 7.56248 9.8874 7.56248 9.75H6.56248ZM15.9375 9.75C15.9375 10.4398 16.498 11 17.1875 11C17.877 11 18.4375 10.4398 18.4375 9.75H17.4375C17.4375 9.8874 17.3249 10 17.1875 10C17.0501 10 16.9375 9.8874 16.9375 9.75H15.9375ZM17.4375 6.375V6.875H17.9375H21.0228L22.2878 23.5H2.71218L3.97712 6.875H7.06248H7.56248V6.375V5.4375C7.56248 2.71534 9.77798 0.5 12.5 0.5C15.222 0.5 17.4375 2.71534 17.4375 5.4375V6.375ZM21.0009 6.58618L21.0009 6.58694C21.0009 6.58649 21.0008 6.58603 21.0008 6.58557L21.0009 6.58618ZM16.4375 6.875H16.9375V6.375V5.4375C16.9375 2.99031 14.9474 1 12.5 1C10.0526 1 8.06248 2.99031 8.06248 5.4375V6.375V6.875H8.56248H16.4375Z" fill="white" stroke="white"/>
</svg>
