<svg width="12" height="15" viewBox="0 0 12 15" fill="none" xmlns="http://www.w3.org/2000/svg">
<path d="M11.3333 14.0937H0.666667C0.489856 14.0937 0.320286 14.0235 0.195262 13.8984C0.0702379 13.7734 0 13.6039 0 13.427V1.42704C0 1.25023 0.0702379 1.08066 0.195262 0.955638C0.320286 0.830614 0.489856 0.760376 0.666667 0.760376H11.3333C11.5101 0.760376 11.6797 0.830614 11.8047 0.955638C11.9298 1.08066 12 1.25023 12 1.42704V13.427C12 13.6039 11.9298 13.7734 11.8047 13.8984C11.6797 14.0235 11.5101 14.0937 11.3333 14.0937ZM10.6667 12.7604V2.09371H1.33333V12.7604H10.6667ZM2.66667 3.42704H5.33333V6.09371H2.66667V3.42704ZM2.66667 7.42704H9.33333V8.76038H2.66667V7.42704ZM2.66667 10.0937H9.33333V11.427H2.66667V10.0937ZM6.66667 4.09371H9.33333V5.42704H6.66667V4.09371Z" fill="#333333"/>
</svg>
