<svg width="22" height="21" viewBox="0 0 22 21" fill="none" xmlns="http://www.w3.org/2000/svg">
<path d="M1 1H4.63636L7.07273 13.1148C7.15586 13.5313 7.38355 13.9055 7.71595 14.1718C8.04835 14.4381 8.46427 14.5796 8.89091 14.5714H17.7273C18.1539 14.5796 18.5698 14.4381 18.9022 14.1718C19.2346 13.9055 19.4623 13.5313 19.5455 13.1148L21 5.52381H5.54545M9.18182 19.0952C9.18182 19.5949 8.7748 20 8.27273 20C7.77065 20 7.36364 19.5949 7.36364 19.0952C7.36364 18.5956 7.77065 18.1905 8.27273 18.1905C8.7748 18.1905 9.18182 18.5956 9.18182 19.0952ZM19.1818 19.0952C19.1818 19.5949 18.7748 20 18.2727 20C17.7707 20 17.3636 19.5949 17.3636 19.0952C17.3636 18.5956 17.7707 18.1905 18.2727 18.1905C18.7748 18.1905 19.1818 18.5956 19.1818 19.0952Z" stroke="#101828" stroke-width="1.5" stroke-linecap="round" stroke-linejoin="round"/>
</svg>
