<svg width="21" height="20" viewBox="0 0 21 20" fill="none" xmlns="http://www.w3.org/2000/svg">
<g opacity="0.4">
<path d="M10.1986 1.66663C5.60357 1.66663 1.86523 5.40496 1.86523 9.99996C1.86523 14.595 5.60357 18.3333 10.1986 18.3333C14.7936 18.3333 18.5319 14.595 18.5319 9.99996C18.5319 5.40496 14.7936 1.66663 10.1986 1.66663ZM10.1986 16.6666C6.52273 16.6666 3.5319 13.6758 3.5319 9.99996C3.5319 6.32413 6.52273 3.33329 10.1986 3.33329C13.8744 3.33329 16.8652 6.32413 16.8652 9.99996C16.8652 13.6758 13.8744 16.6666 10.1986 16.6666Z" fill="black"/>
<path d="M11.0319 5.83337H9.36523V10.8334H14.3652V9.16671H11.0319V5.83337Z" fill="black"/>
</g>
</svg>
