<svg width="8" height="12" viewBox="0 0 8 12" fill="none" xmlns="http://www.w3.org/2000/svg">
<path d="M7.74098 6.301C6.95598 4.261 4.16098 4.151 4.83598 1.186C4.88598 0.966001 4.65098 0.796001 4.46098 0.911001C2.64598 1.981 1.34098 4.126 2.43598 6.936C2.52598 7.166 2.25598 7.381 2.06098 7.231C1.15598 6.546 1.06098 5.561 1.14098 4.856C1.17098 4.596 0.830977 4.471 0.685977 4.686C0.345977 5.206 0.000976562 6.046 0.000976562 7.311C0.190977 10.111 2.55598 10.971 3.40598 11.081C4.62098 11.236 5.93598 11.011 6.88098 10.146C7.92098 9.181 8.30098 7.641 7.74098 6.301ZM3.10098 8.816C3.82098 8.641 4.19098 8.121 4.29098 7.661C4.45598 6.946 3.81098 6.246 4.24598 5.116C4.41098 6.051 5.88098 6.636 5.88098 7.656C5.92098 8.921 4.55098 10.006 3.10098 8.816Z" fill="#BF2E35"/>
</svg>
