<svg width="21" height="24" viewBox="0 0 21 24" fill="none" xmlns="http://www.w3.org/2000/svg">
<path d="M4.56248 9.75C4.56248 10.4398 5.12298 11 5.81248 11C6.50197 11 7.06248 10.4398 7.06248 9.75H6.06248C6.06248 9.8874 5.94985 10 5.81248 10C5.6751 10 5.56248 9.8874 5.56248 9.75H4.56248ZM13.9375 9.75C13.9375 10.4398 14.498 11 15.1875 11C15.877 11 16.4375 10.4398 16.4375 9.75H15.4375C15.4375 9.8874 15.3249 10 15.1875 10C15.0501 10 14.9375 9.8874 14.9375 9.75H13.9375ZM15.4375 6.375V6.875H15.9375H19.0228L20.2878 23.5H0.712176L1.97712 6.875H5.06248H5.56248V6.375V5.4375C5.56248 2.71534 7.77798 0.5 10.5 0.5C13.222 0.5 15.4375 2.71534 15.4375 5.4375V6.375ZM19.0009 6.58618L19.0009 6.58694C19.0009 6.58649 19.0008 6.58603 19.0008 6.58557L19.0009 6.58618ZM14.4375 6.875H14.9375V6.375V5.4375C14.9375 2.99031 12.9474 1 10.5 1C8.05257 1 6.06248 2.99031 6.06248 5.4375V6.375V6.875H6.56248H14.4375Z" fill="white" stroke="white"/>
</svg>
