<svg width="14" height="15" viewBox="0 0 14 15" fill="none" xmlns="http://www.w3.org/2000/svg">
<path d="M6.99967 14.0937C3.31767 14.0937 0.333008 11.109 0.333008 7.42704C0.333008 3.74504 3.31767 0.760376 6.99967 0.760376C10.6817 0.760376 13.6663 3.74504 13.6663 7.42704C13.6663 11.109 10.6817 14.0937 6.99967 14.0937ZM6.99967 12.7604C7.7001 12.7604 8.39367 12.6224 9.04078 12.3544C9.68789 12.0863 10.2759 11.6935 10.7711 11.1982C11.2664 10.7029 11.6593 10.1149 11.9273 9.46782C12.1954 8.82071 12.3333 8.12714 12.3333 7.42671C12.3333 6.72628 12.1954 6.03271 11.9273 5.3856C11.6593 4.73849 11.2664 4.15051 10.7711 3.65524C10.2759 3.15996 9.68789 2.76709 9.04078 2.49904C8.39367 2.231 7.7001 2.09304 6.99967 2.09304C5.5851 2.09304 4.22846 2.65498 3.2282 3.65524C2.22795 4.65549 1.66601 6.01213 1.66601 7.42671C1.66601 8.84129 2.22795 10.1979 3.2282 11.1982C4.22846 12.1984 5.5851 12.7604 6.99967 12.7604ZM6.33301 9.42704H7.66634V10.7604H6.33301V9.42704ZM7.66634 8.33038V8.76038H6.33301V7.76038C6.33301 7.58357 6.40325 7.414 6.52827 7.28897C6.65329 7.16395 6.82286 7.09371 6.99967 7.09371C7.18906 7.0937 7.37455 7.03991 7.53456 6.9386C7.69457 6.83728 7.82252 6.69262 7.90352 6.52143C7.98453 6.35024 8.01525 6.15957 7.99213 5.9716C7.969 5.78364 7.89298 5.6061 7.7729 5.45965C7.65282 5.3132 7.49362 5.20386 7.31382 5.14436C7.13403 5.08485 6.94103 5.07762 6.75729 5.12351C6.57355 5.1694 6.40662 5.26653 6.27592 5.40359C6.14522 5.54064 6.05613 5.712 6.01901 5.89771L4.71101 5.63571C4.79225 5.23068 4.97956 4.85448 5.2538 4.54554C5.52804 4.23661 5.87939 4.00602 6.27193 3.87734C6.66447 3.74866 7.08414 3.7265 7.48806 3.81312C7.89197 3.89974 8.26564 4.09204 8.5709 4.37037C8.87616 4.64871 9.10205 5.00309 9.22549 5.39731C9.34894 5.79153 9.36551 6.21146 9.27352 6.61418C9.18153 7.01691 8.98427 7.38799 8.7019 7.68951C8.41953 7.99104 8.06217 8.21219 7.66634 8.33038Z" fill="#333333"/>
</svg>
