<svg width="14" height="14" viewBox="0 0 14 14" fill="none" xmlns="http://www.w3.org/2000/svg">
<path d="M9.625 9H9.0325L8.8225 8.7975C9.5575 7.9425 10 6.8325 10 5.625C10 2.9325 7.8175 0.75 5.125 0.75C2.4325 0.75 0.25 2.9325 0.25 5.625C0.25 8.3175 2.4325 10.5 5.125 10.5C6.3325 10.5 7.4425 10.0575 8.2975 9.3225L8.5 9.5325V10.125L12.25 13.8675L13.3675 12.75L9.625 9ZM5.125 9C3.2575 9 1.75 7.4925 1.75 5.625C1.75 3.7575 3.2575 2.25 5.125 2.25C6.9925 2.25 8.5 3.7575 8.5 5.625C8.5 7.4925 6.9925 9 5.125 9Z" fill="black"/>
</svg>
