<svg width="21" height="20" viewBox="0 0 21 20" fill="none" xmlns="http://www.w3.org/2000/svg">
<g clip-path="url(#clip0_2858_19613)">
<path d="M6.69219 18.1251C14.2375 18.1251 18.3656 11.8724 18.3656 6.45167C18.3656 6.27589 18.3617 6.0962 18.3539 5.92042C19.157 5.33967 19.85 4.62033 20.4004 3.7962C19.6525 4.12896 18.8584 4.34627 18.0453 4.44074C18.9015 3.92755 19.5425 3.12135 19.8496 2.17159C19.0442 2.64892 18.1634 2.98563 17.2449 3.1673C16.6261 2.50976 15.8079 2.07439 14.9168 1.9285C14.0257 1.78261 13.1114 1.93433 12.3152 2.3602C11.519 2.78607 10.8852 3.46238 10.5119 4.28455C10.1386 5.10672 10.0466 6.02897 10.25 6.9087C8.61913 6.82686 7.02367 6.40321 5.56704 5.6652C4.11041 4.9272 2.82513 3.89132 1.79453 2.62472C1.27072 3.52782 1.11044 4.59649 1.34625 5.61353C1.58206 6.63057 2.19628 7.51966 3.06406 8.10011C2.41258 8.07943 1.77537 7.90402 1.20508 7.58839V7.63917C1.20449 8.58691 1.53214 9.50561 2.13232 10.2391C2.73249 10.9726 3.56816 11.4756 4.49727 11.6626C3.89377 11.8277 3.26038 11.8518 2.64609 11.7329C2.90827 12.548 3.41837 13.2609 4.1052 13.7721C4.79203 14.2833 5.62132 14.5673 6.47734 14.5845C5.02408 15.726 3.22887 16.3452 1.38086 16.3423C1.05313 16.3418 0.725723 16.3217 0.400391 16.2821C2.27777 17.4866 4.46167 18.1263 6.69219 18.1251Z" fill="#808080"/>
</g>
<defs>
<clipPath id="clip0_2858_19613">
<rect width="20" height="20" fill="white" transform="translate(0.400391)"/>
</clipPath>
</defs>
</svg>
