<svg width="16" height="16" viewBox="0 0 16 16" fill="none" xmlns="http://www.w3.org/2000/svg">
<path d="M7.993 1.47998C4.129 1.47998 1 4.61598 1 8.47998C1 12.344 4.129 15.48 7.993 15.48C11.864 15.48 15 12.344 15 8.47998C15 4.61598 11.864 1.47998 7.993 1.47998ZM10.8 11.28C10.7352 11.3449 10.6583 11.3964 10.5736 11.4315C10.489 11.4666 10.3982 11.4847 10.3065 11.4847C10.2148 11.4847 10.124 11.4666 10.0394 11.4315C9.95468 11.3964 9.87776 11.3449 9.813 11.28L7.51 8.97698C7.44386 8.91215 7.39124 8.83484 7.35519 8.74953C7.31914 8.66421 7.30038 8.5726 7.3 8.47998V5.67998C7.3 5.29498 7.615 4.97998 8 4.97998C8.385 4.97998 8.7 5.29498 8.7 5.67998V8.19298L10.8 10.293C11.073 10.566 11.073 11.007 10.8 11.28Z" fill="white"/>
</svg>
