<svg width="19" height="17" viewBox="0 0 19 17" fill="none" xmlns="http://www.w3.org/2000/svg">
<path d="M16.8176 1.89978C16.39 1.45601 15.8823 1.10398 15.3235 0.8638C14.7647 0.623621 14.1658 0.5 13.5609 0.5C12.956 0.5 12.3571 0.623621 11.7983 0.8638C11.2395 1.10398 10.7318 1.45601 10.3042 1.89978L9.41677 2.82033L8.52934 1.89978C7.66561 1.00381 6.49415 0.500464 5.27265 0.500464C4.05115 0.500464 2.87969 1.00381 2.01596 1.89978C1.15223 2.79575 0.666992 4.01094 0.666992 5.27803C0.666992 6.54512 1.15223 7.76031 2.01596 8.65628L2.90339 9.57683L9.41677 16.3333L15.9302 9.57683L16.8176 8.65628C17.2454 8.21272 17.5847 7.68607 17.8163 7.10642C18.0478 6.52677 18.167 5.90547 18.167 5.27803C18.167 4.65059 18.0478 4.0293 17.8163 3.44965C17.5847 2.87 17.2454 2.34334 16.8176 1.89978V1.89978Z" stroke="black" stroke-linecap="round" stroke-linejoin="round"/>
</svg>
