<svg width="16" height="17" viewBox="0 0 16 17" fill="none" xmlns="http://www.w3.org/2000/svg">
<path d="M14.5693 14.5246L12.4399 12.3952C12.856 11.8592 13.0522 11.1847 12.9886 10.5091C12.9249 9.83347 12.6062 9.20751 12.0972 8.75865C11.5883 8.30978 10.9274 8.07174 10.2492 8.09298C9.5709 8.11423 8.92622 8.39317 8.44638 8.87301C7.96653 9.35286 7.6876 9.99754 7.66635 10.6758C7.6451 11.3541 7.88314 12.0149 8.33201 12.5239C8.78088 13.0328 9.40683 13.3516 10.0824 13.4152C10.7581 13.4789 11.4325 13.2827 11.9686 12.8665L14.098 14.996C14.1289 15.0269 14.1657 15.0515 14.2061 15.0682C14.2466 15.085 14.2899 15.0936 14.3337 15.0936C14.3774 15.0936 14.4208 15.085 14.4612 15.0682C14.5017 15.0515 14.5384 15.0269 14.5693 14.996C14.6003 14.965 14.6248 14.9283 14.6416 14.8879C14.6583 14.8474 14.667 14.8041 14.667 14.7603C14.667 14.7165 14.6583 14.6732 14.6416 14.6328C14.6248 14.5923 14.6003 14.5556 14.5693 14.5246ZM8.91934 12.1746C8.59216 11.8475 8.38854 11.4169 8.34318 10.9565C8.29783 10.496 8.41354 10.034 8.67061 9.64928C8.92767 9.26455 9.31019 8.98086 9.75297 8.84654C10.1958 8.71222 10.6714 8.73558 11.0989 8.91265C11.5264 9.08972 11.8793 9.40954 12.0974 9.81761C12.3155 10.2257 12.3854 10.6968 12.2951 11.1506C12.2049 11.6044 11.96 12.0129 11.6023 12.3064C11.2447 12.6 10.7963 12.7604 10.3336 12.7604C10.0708 12.7611 9.81055 12.7097 9.56782 12.6091C9.32509 12.5086 9.10471 12.3608 8.91944 12.1745L8.91934 12.1746Z" fill="#333333" stroke="#333333" stroke-width="0.5"/>
<path d="M13.8018 4.12247L7.80176 1.45581C7.75912 1.4369 7.71298 1.42712 7.66634 1.42712C7.61969 1.42712 7.57356 1.4369 7.53091 1.45581L1.53091 4.12247C1.47201 4.14867 1.42196 4.19138 1.38684 4.24544C1.35171 4.29951 1.33301 4.36259 1.33301 4.42706V11.7604C1.33302 11.8249 1.35172 11.8879 1.38684 11.942C1.42197 11.996 1.47201 12.0387 1.53091 12.0649L7.53091 14.7316C7.57354 14.7506 7.61967 14.7604 7.66634 14.7604C7.713 14.7604 7.75914 14.7506 7.80176 14.7316L8.55176 14.3982C8.63142 14.3616 8.69345 14.2951 8.72439 14.213C8.75534 14.131 8.75271 14.0401 8.71709 13.96C8.68146 13.8799 8.6157 13.817 8.53405 13.785C8.45241 13.7531 8.36146 13.7546 8.28091 13.7892L7.66632 14.0623L1.99966 11.5437V4.94L7.53091 7.39834C7.57355 7.41728 7.61968 7.42707 7.66634 7.42707C7.71299 7.42707 7.75912 7.41728 7.80176 7.39834L13.333 4.94V8.7604C13.3326 8.80445 13.3409 8.84814 13.3574 8.88896C13.374 8.92977 13.3985 8.9669 13.4295 8.9982C13.4605 9.02949 13.4974 9.05434 13.538 9.07129C13.5787 9.08824 13.6223 9.09697 13.6663 9.09697C13.7104 9.09697 13.754 9.08824 13.7946 9.07129C13.8353 9.05434 13.8722 9.02949 13.9032 8.9982C13.9342 8.9669 13.9587 8.92977 13.9752 8.88896C13.9918 8.84814 14.0001 8.80445 13.9997 8.7604V4.42706C13.9997 4.36259 13.981 4.29951 13.9458 4.24544C13.9107 4.19138 13.8607 4.14867 13.8018 4.12247V4.12247ZM7.66632 2.12515L9.66654 3.01415L4.53091 5.29659C4.51728 5.30278 4.50407 5.30988 4.49138 5.31784L2.48716 4.42706L7.66632 2.12515ZM7.66632 6.729L5.30801 5.68081L10.4684 3.38734C10.4747 3.38462 10.4802 3.3814 10.4861 3.37837L12.8456 4.42706L7.66632 6.729Z" fill="#333333" stroke="#333333" stroke-width="0.5"/>
</svg>
